<svg width="256" height="256" viewBox="0 0 256 256" fill="none" xmlns="http://www.w3.org/2000/svg">
<rect width="256" height="256" rx="60" fill="url(#paint0_linear_30_3)"/>
<path d="M106.498 78.469C105.45 77.4214 103.541 77.1039 101.992 78.469L51.059 122.915C49.5097 124.281 49.6918 126.549 51.059 127.733L101.992 176.711C103.541 178.077 105.45 177.76 106.498 176.711C107.545 175.663 107.228 173.755 105.862 172.571L60.0388 132.321L149.502 178.469C150.55 179.516 152.459 179.199 154.008 177.833L204.941 133.387C206.49 132.021 206.308 129.753 204.941 128.569L154.008 79.591C152.459 78.2254 150.55 78.5429 149.502 79.591C148.455 80.6385 148.772 82.5473 150.138 83.7311L195.961 123.981L106.498 78.469Z" fill="white"/>
<defs>
<linearGradient id="paint0_linear_30_3" x1="128" y1="0" x2="128" y2="256" gradientUnits="userSpaceOnUse">
<stop stop-color="#FF5722"/>
<stop offset="1" stop-color="#FFC107"/>
</linearGradient>
</defs>
</svg>
